<svg width="1073" height="160" viewBox="0 0 1073 160" fill="none" xmlns="http://www.w3.org/2000/svg">
<path d="M1033.91 120.539H1072.51V156.55H1033.91V120.539Z" fill="#19CD69"/>
<path d="M846.369 40.5391H879.577L880.87 68.1402L877.852 66.4151C879.433 60.5211 881.805 55.4178 884.967 51.1051C888.274 46.7925 892.155 43.558 896.612 41.4016C901.212 39.1015 906.243 37.9515 911.706 37.9515C921.05 37.9515 928.669 40.7547 934.563 46.3612C940.601 51.8239 944.482 59.3711 946.207 69.0027L942.11 69.2183C944.123 59.1554 948.148 51.4645 954.186 46.1456C960.367 40.6829 967.843 37.9515 976.612 37.9515C984.518 37.9515 991.419 39.6047 997.312 42.9111C1003.21 46.2174 1007.73 51.2489 1010.9 58.0054C1014.2 64.6182 1015.86 72.5966 1015.86 81.9407V156.55H978.768V92.5068C978.768 83.8814 977.546 77.4843 975.102 73.3154C972.658 69.0027 968.777 66.8464 963.458 66.8464C959.864 66.8464 956.917 67.8527 954.617 69.8652C952.317 71.8778 950.52 74.8248 949.226 78.7062C948.076 82.5876 947.501 87.3315 947.501 92.938V156.55H914.509V92.938C914.509 84.0252 913.359 77.4843 911.059 73.3154C908.759 69.0027 904.878 66.8464 899.415 66.8464C895.965 66.8464 893.018 67.8527 890.574 69.8652C888.274 71.8778 886.477 74.8967 885.183 78.9218C884.033 82.8032 883.458 87.4753 883.458 92.938V156.55H846.369V40.5391Z" fill="#19CD69"/>
<path d="M753.935 159.137C741.859 159.137 732.443 155.328 725.687 147.709C719.074 140.09 715.768 129.308 715.768 115.364V40.5391H752.857V106.739C752.857 114.933 754.007 120.898 756.307 124.636C758.751 128.374 762.56 130.243 767.735 130.243C773.486 130.243 777.87 128.158 780.889 123.989C784.052 119.82 785.633 113.423 785.633 104.798V40.5391H822.722V156.55H789.299L788.221 121.617L792.533 122.264C791.096 134.627 787.142 143.899 780.673 150.081C774.204 156.119 765.291 159.137 753.935 159.137Z" fill="#19CD69"/>
<path d="M587.061 40.5391H620.269L621.778 76.1186L617.25 75.2561C618.688 62.1743 622.713 52.6864 629.326 46.7925C635.938 40.8985 644.492 37.9515 654.986 37.9515C667.349 37.9515 677.052 41.8329 684.097 49.5957C691.141 57.3585 694.663 68.1402 694.663 81.9407V156.55H657.574V94.6631C657.574 85.0315 656.424 77.9874 654.123 73.531C651.967 69.0746 647.942 66.8464 642.048 66.8464C636.154 66.8464 631.698 69.2183 628.679 73.9623C625.66 78.7062 624.15 85.6065 624.15 94.6631V156.55H587.061V40.5391Z" fill="#19CD69"/>
<path d="M528.899 40.5391H565.988V156.55H528.899V40.5391ZM528.252 2.28882e-05H566.419V27.6011H528.252V2.28882e-05Z" fill="#19CD69"/>
<path d="M458.904 159.137C446.829 159.137 436.55 157.484 428.069 154.178C419.587 150.872 413.118 146.271 408.662 140.377C404.349 134.483 401.905 127.727 401.33 120.108L438.635 118.814C439.641 123.989 441.726 127.871 444.888 130.458C448.195 133.046 452.939 134.34 459.12 134.34C464.295 134.34 468.177 133.549 470.764 131.968C473.496 130.243 474.861 127.727 474.861 124.421C474.861 122.12 474.286 120.252 473.136 118.814C472.13 117.376 470.045 116.083 466.883 114.933C463.864 113.783 459.408 112.704 453.514 111.698C440.719 109.686 430.8 107.242 423.756 104.367C416.712 101.348 411.681 97.6101 408.662 93.1537C405.643 88.5535 404.134 82.7314 404.134 75.6873C404.134 64.0431 408.662 54.8428 417.718 48.0863C426.919 41.3298 440.432 37.9515 458.258 37.9515C474.789 37.9515 487.584 41.6173 496.64 48.9488C505.841 56.2803 511.16 66.1995 512.597 78.7062L475.724 80C475.149 74.5373 473.28 70.2965 470.117 67.2776C466.955 64.2588 462.858 62.7493 457.826 62.7493C452.939 62.7493 449.129 63.8275 446.398 65.9838C443.666 68.1402 442.301 70.9434 442.301 74.3935C442.301 76.8374 442.876 78.9218 444.026 80.6469C445.32 82.2282 447.332 83.522 450.063 84.5283C452.795 85.5346 456.676 86.3971 461.708 87.1159C474.214 88.841 484.205 91.213 491.681 94.2318C499.3 97.2507 504.762 101.132 508.069 105.876C511.375 110.62 513.028 116.514 513.028 123.558C513.028 134.915 508.213 143.684 498.581 149.865C489.093 156.047 475.868 159.137 458.904 159.137Z" fill="#19CD69"/>
<path d="M278.015 40.5391H311.223L312.732 76.1186L308.204 75.2561C309.641 62.1743 313.666 52.6864 320.279 46.7925C326.892 40.8985 335.445 37.9515 345.94 37.9515C358.303 37.9515 368.006 41.8329 375.05 49.5957C382.094 57.3585 385.616 68.1402 385.616 81.9407V156.55H348.527V94.6631C348.527 85.0315 347.377 77.9874 345.077 73.531C342.921 69.0746 338.896 66.8464 333.002 66.8464C327.108 66.8464 322.651 69.2183 319.632 73.9623C316.613 78.7062 315.104 85.6065 315.104 94.6631V156.55H278.015V40.5391Z" fill="#19CD69"/>
<path d="M203.664 159.137C191.588 159.137 180.95 156.622 171.75 151.59C162.693 146.559 155.649 139.515 150.618 130.458C145.73 121.258 143.286 110.62 143.286 98.5445C143.286 86.469 145.73 75.903 150.618 66.8464C155.649 57.646 162.693 50.5301 171.75 45.4987C180.95 40.4672 191.516 37.9515 203.448 37.9515C215.236 37.9515 225.586 40.5391 234.499 45.7143C243.412 50.7457 250.24 58.0773 254.984 67.7089C259.728 77.3405 262.1 88.5535 262.1 101.348V108.248H181.453C181.741 116.155 183.897 122.12 187.922 126.146C191.948 130.171 197.41 132.183 204.311 132.183C209.198 132.183 213.223 131.177 216.386 129.164C219.692 127.152 222.064 123.989 223.502 119.677L260.591 121.833C257.428 133.621 250.815 142.821 240.753 149.434C230.69 155.903 218.327 159.137 203.664 159.137ZM224.796 87.1159C224.508 79.7844 222.424 74.1779 218.542 70.2965C214.805 66.2713 209.773 64.2588 203.448 64.2588C197.266 64.2588 192.235 66.2713 188.354 70.2965C184.472 74.3217 182.172 79.9281 181.453 87.1159H224.796Z" fill="#19CD69"/>
<path d="M66.9567 160C53.4437 160 41.7995 157.772 32.0241 153.315C22.2487 148.859 14.6297 142.606 9.16695 134.555C3.848 126.361 0.82913 116.73 0.110352 105.66L37.6306 103.935C38.3493 109.542 39.9307 114.286 42.3745 118.167C44.8184 121.905 48.0528 124.78 52.078 126.792C56.2469 128.805 61.3503 129.811 67.388 129.811C74.7195 129.811 80.326 128.518 84.2074 125.93C88.2326 123.342 90.2451 119.461 90.2451 114.286C90.2451 110.979 89.4545 108.176 87.8732 105.876C86.2919 103.576 83.273 101.491 78.8166 99.6227C74.3601 97.6101 67.8911 95.6694 59.4095 93.8005C45.4652 90.7817 34.4679 87.4034 26.4176 83.6658C18.3673 79.7844 12.4015 74.9686 8.52006 69.2183C4.78241 63.4681 2.91359 56.0647 2.91359 47.0081C2.91359 37.664 5.28555 29.4699 10.0295 22.4259C14.7734 15.3819 21.6018 9.91914 30.5147 6.03773C39.5713 2.01258 50.2092 0 62.4284 0C75.2227 0 86.1481 2.22821 95.2047 6.68463C104.405 11.1411 111.521 17.3225 116.552 25.2291C121.584 33.1357 124.675 42.336 125.825 52.8302L88.5201 54.5553C88.2326 49.5238 86.9387 45.2111 84.6387 41.6172C82.3386 37.8796 79.2478 35.0764 75.3664 33.2075C71.6288 31.195 67.1724 30.1887 61.9972 30.1887C55.3844 30.1887 50.1373 31.6262 46.2559 34.5013C42.5183 37.3765 40.6494 41.1141 40.6494 45.7143C40.6494 49.3082 41.512 52.2552 43.237 54.5553C45.1059 56.8553 48.0528 58.8679 52.078 60.593C56.2469 62.1743 62.1409 63.6837 69.7599 65.1213C84.1355 67.8526 95.5641 71.4465 104.046 75.903C112.527 80.2156 118.637 85.3908 122.375 91.4286C126.112 97.3225 127.981 104.367 127.981 112.561C127.981 122.336 125.537 130.818 120.649 138.005C115.762 145.049 108.718 150.512 99.5174 154.394C90.317 158.131 79.4635 160 66.9567 160Z" fill="#74E1A4"/>
<path d="M59.4099 93.8005C67.8915 95.6694 74.3605 97.6101 78.8169 99.6226C107.997 109.209 120.476 117.699 120.65 138.005C125.537 130.818 127.981 122.336 127.981 112.561C127.981 104.367 126.113 97.3225 122.375 91.4286C118.637 85.3908 112.528 80.2156 104.046 75.9029C95.5644 71.4465 84.1359 67.8526 69.7603 65.1213C62.1413 63.6837 56.2473 62.1743 52.0784 60.593C19.7462 50.4634 10.8343 41.9714 10.0298 22.4259C5.28591 29.4699 2.91394 37.664 2.91394 47.0081C2.91394 56.0647 4.78276 63.4681 8.52041 69.2183C12.4018 74.9685 18.3677 79.7844 26.418 83.6658C34.4683 87.4034 45.4656 90.7817 59.4099 93.8005Z" fill="#19CD69"/>
</svg>
