<svg width="20" height="20" viewBox="0 0 20 20" fill="none" xmlns="http://www.w3.org/2000/svg">
<g clip-path="url(#clip0_2174_15329)">
<path d="M0 6.93333C0 3.66492 0 2.03073 1.01536 1.01536C2.03073 0 3.66492 0 6.93333 0H13.0667C16.3351 0 17.9692 0 18.9846 1.01536C20 2.03073 20 3.66492 20 6.93333V13.0667C20 16.3351 20 17.9692 18.9846 18.9846C17.9692 20 16.3351 20 13.0667 20H6.93333C3.66492 20 2.03073 20 1.01536 18.9846C0 17.9692 0 16.3351 0 13.0667V6.93333Z" fill="#4945FF"/>
<path fill-rule="evenodd" clip-rule="evenodd" d="M13.8 6.06666H7.06662V9.5H10.5V12.9333H13.9333V6.2C13.9333 6.12636 13.8736 6.06666 13.8 6.06666Z" fill="white"/>
<path d="M10.4999 9.5H10.3666V9.63334H10.4999V9.5Z" fill="white"/>
<path d="M7.06662 9.5H10.3666C10.4403 9.5 10.5 9.55972 10.5 9.63331V12.9333H7.19996C7.12632 12.9333 7.06662 12.8737 7.06662 12.8V9.5Z" fill="#9593FF"/>
<path d="M10.5 12.9333H13.9333L10.6138 16.2528C10.5718 16.2948 10.5 16.2651 10.5 16.2058V12.9333Z" fill="#9593FF"/>
<path d="M7.06662 9.5H3.79423C3.73484 9.5 3.7051 9.42819 3.74709 9.38619L7.06662 6.06666V9.5Z" fill="#9593FF"/>
</g>
<defs>
<clipPath id="clip0_2174_15329">
<rect width="20" height="20" fill="white"/>
</clipPath>
</defs>
</svg>
